HIERARCHY
ROOT Hips
{
	OFFSET 0.053599 88.859886 3.107447
	CHANNELS 6 Xposition Yposition Zposition Zrotation Yrotation Xrotation 
	JOINT Spine
	{
		OFFSET -0.000000 8.814246 -2.080107
		CHANNELS 3 Zrotation Yrotation Xrotation
		JOINT Spine1
		{
			OFFSET 0.000000 8.844141 0.000000
			CHANNELS 3 Zrotation Yrotation Xrotation
			JOINT Spine2
			{
				OFFSET -0.000000 11.682268 0.000000
				CHANNELS 3 Zrotation Yrotation Xrotation
				JOINT Spine3
				{
					OFFSET 0.000000 11.746700 0.000000
					CHANNELS 3 Zrotation Yrotation Xrotation
					JOINT Neck
					{
						OFFSET -0.000000 17.658264 -0.000000
						CHANNELS 3 Zrotation Yrotation Xrotation
						JOINT Neck1
						{
							OFFSET -0.000000 5.101515 -0.000000
							CHANNELS 3 Zrotation Yrotation Xrotation
							JOINT Head
							{
								OFFSET 0.000000 5.101515 0.000000
								CHANNELS 3 Zrotation Yrotation Xrotation
								JOINT HeadEnd
								{
									OFFSET 0.000000 11.655085 0.000000
									CHANNELS 3 Zrotation Yrotation Xrotation
									End Site
									{
										OFFSET 0.000000 0.000000 0.000000
									}
								}
							}
						}
					}
					JOINT RightShoulder
					{
						OFFSET -2.625389 11.175210 0.000000
						CHANNELS 3 Zrotation Yrotation Xrotation
						JOINT RightArm
						{
							OFFSET -0.000000 10.434715 -0.000000
							CHANNELS 3 Zrotation Yrotation Xrotation
							JOINT RightForeArm
							{
								OFFSET -0.000000 29.628420 0.000000
								CHANNELS 3 Zrotation Yrotation Xrotation
								JOINT RightHand
								{
									OFFSET -0.000000 22.857611 0.000000
									CHANNELS 3 Zrotation Yrotation Xrotation
									JOINT RightHandThumb1
									{
										OFFSET -2.867323 3.959563 2.944291
										CHANNELS 3 Zrotation Yrotation Xrotation
										JOINT RightHandThumb2
										{
											OFFSET 0.000000 3.350399 0.000000
											CHANNELS 3 Zrotation Yrotation Xrotation
											JOINT RightHandThumb3
											{
												OFFSET 0.000000 3.756509 -0.000000
												CHANNELS 3 Zrotation Yrotation Xrotation
												JOINT RightHandThumb4
												{
													OFFSET 0.000000 3.147345 0.000000
													CHANNELS 3 Zrotation Yrotation Xrotation
													End Site
													{
														OFFSET 0.000000 0.000000 0.000000
													}
												}
											}
										}
									}
									JOINT RightHandIndex1
									{
										OFFSET -0.086752 10.030893 2.345280
										CHANNELS 3 Zrotation Yrotation Xrotation
										JOINT RightHandIndex2
										{
											OFFSET -0.000000 4.061090 0.000000
											CHANNELS 3 Zrotation Yrotation Xrotation
											JOINT RightHandIndex3
											{
												OFFSET -0.000000 3.248873 0.000000
												CHANNELS 3 Zrotation Yrotation Xrotation
												JOINT RightHandIndex4
												{
													OFFSET 0.000000 2.639709 -0.000000
													CHANNELS 3 Zrotation Yrotation Xrotation
													End Site
													{
														OFFSET 0.000000 0.000000 0.000000
													}
												}
											}
										}
									}
									JOINT RightHandMiddle1
									{
										OFFSET 0.104102 9.502952 0.006768
										CHANNELS 3 Zrotation Yrotation Xrotation
										JOINT RightHandMiddle2
										{
											OFFSET 0.000000 4.568727 0.000000
											CHANNELS 3 Zrotation Yrotation Xrotation
											JOINT RightHandMiddle3
											{
												OFFSET 0.000000 3.654981 -0.000000
												CHANNELS 3 Zrotation Yrotation Xrotation
												JOINT RightHandMiddle4
												{
													OFFSET -0.000000 2.741236 -0.000000
													CHANNELS 3 Zrotation Yrotation Xrotation
													End Site
													{
														OFFSET 0.000000 0.000000 0.000000
													}
												}
											}
										}
									}
									JOINT RightHandRing1
									{
										OFFSET 0.086752 8.921708 -2.267442
										CHANNELS 3 Zrotation Yrotation Xrotation
										JOINT RightHandRing2
										{
											OFFSET -0.000000 4.061090 0.000000
											CHANNELS 3 Zrotation Yrotation Xrotation
											JOINT RightHandRing3
											{
												OFFSET 0.000000 3.654981 -0.000000
												CHANNELS 3 Zrotation Yrotation Xrotation
												JOINT RightHandRing4
												{
													OFFSET 0.000000 2.741236 -0.000000
													CHANNELS 3 Zrotation Yrotation Xrotation
													End Site
													{
														OFFSET 0.000000 0.000000 0.000000
													}
												}
											}
										}
									}
									JOINT RightHandPinky1
									{
										OFFSET -0.173504 7.976997 -4.467199
										CHANNELS 3 Zrotation Yrotation Xrotation
										JOINT RightHandPinky2
										{
											OFFSET 0.000000 3.350399 -0.000000
											CHANNELS 3 Zrotation Yrotation Xrotation
											JOINT RightHandPinky3
											{
												OFFSET -0.000000 2.842763 0.000000
												CHANNELS 3 Zrotation Yrotation Xrotation
												JOINT RightHandPinky4
												{
													OFFSET -0.000000 2.639709 0.000000
													CHANNELS 3 Zrotation Yrotation Xrotation
													End Site
													{
														OFFSET 0.000000 0.000000 0.000000
													}
												}
											}
										}
									}
									JOINT RightForeArmEnd
									{
										OFFSET 0.000000 0.000000 0.000000
										CHANNELS 3 Zrotation Yrotation Xrotation
										End Site
										{
											OFFSET 0.000000 0.000000 0.000000
										}
									}
								}
								JOINT RightArmEnd
								{
									OFFSET 0.000000 0.000000 0.000000
									CHANNELS 3 Zrotation Yrotation Xrotation
									End Site
									{
										OFFSET 0.000000 0.000000 0.000000
									}
								}
							}
						}
					}
					JOINT LeftShoulder
					{
						OFFSET 2.625389 11.175210 0.000000
						CHANNELS 3 Zrotation Yrotation Xrotation
						JOINT LeftArm
						{
							OFFSET 0.000000 10.813635 -0.000000
							CHANNELS 3 Zrotation Yrotation Xrotation
							JOINT LeftForeArm
							{
								OFFSET 0.000000 28.724781 0.000000
								CHANNELS 3 Zrotation Yrotation Xrotation
								JOINT LeftHand
								{
									OFFSET 0.644384 25.716167 -0.328871
									CHANNELS 3 Zrotation Yrotation Xrotation
									JOINT LeftHandThumb1
									{
										OFFSET 2.867323 3.959563 2.944291
										CHANNELS 3 Zrotation Yrotation Xrotation
										JOINT LeftHandThumb2
										{
											OFFSET 0.000000 3.350399 0.000000
											CHANNELS 3 Zrotation Yrotation Xrotation
											JOINT LeftHandThumb3
											{
												OFFSET -0.000000 3.756509 0.000000
												CHANNELS 3 Zrotation Yrotation Xrotation
												JOINT LeftHandThumb4
												{
													OFFSET -0.000000 3.100000 0.000000
													CHANNELS 3 Zrotation Yrotation Xrotation
													End Site
													{
														OFFSET 0.000000 0.000000 0.000000
													}
												}
											}
										}
									}
									JOINT LeftHandIndex1
									{
										OFFSET 0.086752 10.030893 2.345280
										CHANNELS 3 Zrotation Yrotation Xrotation
										JOINT LeftHandIndex2
										{
											OFFSET -0.000000 4.061090 -0.000000
											CHANNELS 3 Zrotation Yrotation Xrotation
											JOINT LeftHandIndex3
											{
												OFFSET 0.000000 3.248873 -0.000000
												CHANNELS 3 Zrotation Yrotation Xrotation
												JOINT LeftHandIndex4
												{
													OFFSET 0.000000 2.639709 -0.000000
													CHANNELS 3 Zrotation Yrotation Xrotation
													End Site
													{
														OFFSET 0.000000 0.000000 0.000000
													}
												}
											}
										}
									}
									JOINT LeftHandMiddle1
									{
										OFFSET -0.104102 9.502952 0.006768
										CHANNELS 3 Zrotation Yrotation Xrotation
										JOINT LeftHandMiddle2
										{
											OFFSET -0.000000 4.568727 -0.000000
											CHANNELS 3 Zrotation Yrotation Xrotation
											JOINT LeftHandMiddle3
											{
												OFFSET 0.000000 3.654981 0.000000
												CHANNELS 3 Zrotation Yrotation Xrotation
												JOINT LeftHandMiddle4
												{
													OFFSET 0.000000 2.741236 -0.000000
													CHANNELS 3 Zrotation Yrotation Xrotation
													End Site
													{
														OFFSET 0.000000 0.000000 0.000000
													}
												}
											}
										}
									}
									JOINT LeftHandRing1
									{
										OFFSET -0.086752 8.921708 -2.267442
										CHANNELS 3 Zrotation Yrotation Xrotation
										JOINT LeftHandRing2
										{
											OFFSET 0.000000 4.061090 0.000000
											CHANNELS 3 Zrotation Yrotation Xrotation
											JOINT LeftHandRing3
											{
												OFFSET 0.000000 3.654981 0.000000
												CHANNELS 3 Zrotation Yrotation Xrotation
												JOINT LeftHandRing4
												{
													OFFSET 0.000000 2.741236 0.000000
													CHANNELS 3 Zrotation Yrotation Xrotation
													End Site
													{
														OFFSET 0.000000 0.000000 0.000000
													}
												}
											}
										}
									}
									JOINT LeftHandPinky1
									{
										OFFSET 0.173504 7.976997 -4.467199
										CHANNELS 3 Zrotation Yrotation Xrotation
										JOINT LeftHandPinky2
										{
											OFFSET -0.000000 3.350399 -0.000000
											CHANNELS 3 Zrotation Yrotation Xrotation
											JOINT LeftHandPinky3
											{
												OFFSET 0.000000 2.842763 0.000000
												CHANNELS 3 Zrotation Yrotation Xrotation
												JOINT LeftHandPinky4
												{
													OFFSET -0.000000 2.639709 -0.000000
													CHANNELS 3 Zrotation Yrotation Xrotation
													End Site
													{
														OFFSET 0.000000 0.000000 0.000000
													}
												}
											}
										}
									}
									JOINT LeftForeArmEnd
									{
										OFFSET 0.000000 0.000000 0.000000
										CHANNELS 3 Zrotation Yrotation Xrotation
										End Site
										{
											OFFSET 0.000000 0.000000 0.000000
										}
									}
								}
								JOINT LeftArmEnd
								{
									OFFSET 0.000000 0.000000 0.000000
									CHANNELS 3 Zrotation Yrotation Xrotation
									End Site
									{
										OFFSET 0.000000 0.000000 0.000000
									}
								}
							}
						}
					}
				}
			}
		}
	}
	JOINT RightUpLeg
	{
		OFFSET -11.289943 0.000000 0.000000
		CHANNELS 3 Zrotation Yrotation Xrotation
		JOINT RightLeg
		{
			OFFSET 0.000000 -38.200325 0.000000
			CHANNELS 3 Zrotation Yrotation Xrotation
			JOINT RightFoot
			{
				OFFSET -0.000000 -39.900856 -0.000000
				CHANNELS 3 Zrotation Yrotation Xrotation
				JOINT RightToeBase
				{
					OFFSET 0.000000 0.000000 15.261641
					CHANNELS 3 Zrotation Yrotation Xrotation
					JOINT RightToeBaseEnd
					{
						OFFSET 0.000000 0.000000 7.370709
						CHANNELS 3 Zrotation Yrotation Xrotation
						End Site
						{
							OFFSET 0.000000 0.000000 0.000000
						}
					}
				}
				JOINT RightLegEnd
				{
					OFFSET 0.000000 0.000000 0.000000
					CHANNELS 3 Zrotation Yrotation Xrotation
					End Site
					{
						OFFSET 0.000000 0.000000 0.000000
					}
				}
			}
			JOINT RightUpLegEnd
			{
				OFFSET 0.000000 0.000000 0.000000
				CHANNELS 3 Zrotation Yrotation Xrotation
				End Site
				{
					OFFSET 0.000000 0.000000 0.000000
				}
			}
		}
	}
	JOINT LeftUpLeg
	{
		OFFSET 11.315661 -0.000000 0.000000
		CHANNELS 3 Zrotation Yrotation Xrotation
		JOINT LeftLeg
		{
			OFFSET -0.000000 -38.200325 -0.000000
			CHANNELS 3 Zrotation Yrotation Xrotation
			JOINT LeftFoot
			{
				OFFSET 0.000000 -39.900856 -0.000000
				CHANNELS 3 Zrotation Yrotation Xrotation
				JOINT LeftToeBase
				{
					OFFSET -0.000000 -0.000000 15.261641
					CHANNELS 3 Zrotation Yrotation Xrotation
					JOINT LeftToeBaseEnd
					{
						OFFSET 0.000000 -0.000000 7.539996
						CHANNELS 3 Zrotation Yrotation Xrotation
						End Site
						{
							OFFSET 0.000000 0.000000 0.000000
						}
					}
				}
				JOINT LeftLegEnd
				{
					OFFSET 0.000000 0.000000 0.000000
					CHANNELS 3 Zrotation Yrotation Xrotation
					End Site
					{
						OFFSET 0.000000 0.000000 0.000000
					}
				}
			}
			JOINT LeftUpLegEnd
			{
				OFFSET 0.000000 0.000000 0.000000
				CHANNELS 3 Zrotation Yrotation Xrotation
				End Site
				{
					OFFSET 0.000000 0.000000 0.000000
				}
			}
		}
	}
}
MOTION
Frames: 5
Frame Time: 0.016667
-4.637307 88.131454 0.239095 -0.763651 -0.618132 -14.106892 1.514446 0.270665 8.221072 -0.759645 0.073775 1.724517 -1.523849 0.638464 6.140318 -1.350039 0.268968 4.115128 -0.805199 -0.135983 3.854683 -0.296713 -0.798909 -2.697257 -0.287694 -0.943840 -19.337706 0.000000 0.000000 0.000000 92.349724 -0.409320 11.574352 61.048931 -31.033585 6.459003 -0.995689 15.543618 39.637524 6.046040 6.183529 -10.801805 20.291960 29.901009 61.561489 -8.986280 -12.927113 -21.843870 -6.690461 -8.633281 -15.326064 0.000000 0.000000 0.000000 15.761411 -11.015101 3.411498 10.787023 0.298936 1.303683 10.596854 -0.122918 1.227072 0.000000 0.000000 0.000000 14.241924 -5.808750 1.524123 9.297363 0.420089 0.514358 9.937566 -0.061274 0.427353 0.000000 0.000000 0.000000 13.058555 2.041772 0.538073 9.148382 -0.911809 -0.811840 9.219254 0.082906 -0.539735 0.000000 0.000000 0.000000 10.455861 10.574750 -1.263176 8.197322 -1.648574 -2.287826 8.218677 0.286808 -1.940434 0.000000 0.000000 0.000000 0.000000 0.000000 0.000000 0.000000 0.000000 0.000000 -88.209724 0.136650 6.056861 -67.138435 25.974726 -4.878970 -0.135088 -9.484919 59.628838 -11.813810 -12.836217 -17.095991 -18.758066 -30.442719 63.118252 7.289701 10.020348 -17.260351 5.381160 6.809623 -12.122194 0.000000 0.000000 0.000000 -8.367065 -7.063335 4.470496 -6.178554 0.424446 -0.897796 -5.989550 -0.055944 -0.843251 0.000000 0.000000 0.000000 -7.397644 -2.116335 1.543927 -6.242256 0.457466 -0.367184 -6.115065 -0.043100 -0.312240 0.000000 0.000000 0.000000 -10.215360 6.099853 -1.961854 -7.238030 -0.915081 0.686011 -7.465032 0.053204 0.515178 0.000000 0.000000 0.000000 -14.108005 14.768089 -6.416946 -8.653637 -1.667483 2.314343 -8.504565 0.271920 2.041574 0.000000 0.000000 0.000000 0.000000 0.000000 0.000000 0.000000 0.000000 0.000000 -3.015586 -8.681178 18.554985 -0.112602 -0.958998 5.905739 -0.314477 -5.677445 15.748689 -0.821695 1.367217 -17.189358 0.000000 0.000000 0.000000 0.000000 0.000000 0.000000 0.000000 0.000000 0.000000 1.576022 -7.357232 10.972206 0.140298 0.556614 14.016752 0.972472 -1.087962 14.521503 0.676300 -0.752878 -20.345934 0.000000 0.000000 0.000000 0.000000 0.000000 0.000000 0.000000 0.000000 0.000000 
-4.639645 88.131355 0.237031 -0.763692 -0.615004 -14.107738 1.513496 0.270385 8.221699 -0.760335 0.073396 1.724111 -1.523707 0.636960 6.139646 -1.350629 0.268109 4.115734 -0.812785 -0.131478 3.861902 -0.298915 -0.798618 -2.694129 -0.288293 -0.942674 -19.338903 0.000000 0.000000 0.000000 92.350510 -0.409134 11.571946 61.045120 -31.011694 6.444445 -0.997312 15.553720 39.704975 6.048323 6.177772 -10.798029 20.290768 29.901375 61.562412 -8.985291 -12.924922 -21.840630 -6.689708 -8.631721 -15.323834 0.000000 0.000000 0.000000 15.752538 -11.013822 3.419887 10.783316 0.298825 1.303596 10.592577 -0.123013 1.227100 0.000000 0.000000 0.000000 14.236157 -5.807703 1.528985 9.294645 0.420043 0.514248 9.934826 -0.061306 0.427229 0.000000 0.000000 0.000000 13.056818 2.042477 0.537171 9.147025 -0.911740 -0.811695 9.218095 0.082925 -0.539618 0.000000 0.000000 0.000000 10.457375 10.575075 -1.270255 8.198031 -1.648423 -2.287030 8.219743 0.286957 -1.939867 0.000000 0.000000 0.000000 0.000000 0.000000 0.000000 0.000000 0.000000 0.000000 -88.205330 0.135406 6.055754 -67.126457 25.963039 -4.880540 -0.135476 -9.500974 59.659527 -11.829019 -12.813697 -17.103470 -18.754074 -30.444084 63.122223 7.285362 10.012757 -17.248161 5.377797 6.804526 -12.113853 0.000000 0.000000 0.000000 -8.341091 -7.067969 4.478270 -6.165059 0.424395 -0.897665 -5.976553 -0.056012 -0.843150 0.000000 0.000000 0.000000 -7.373481 -2.120683 1.546956 -6.229575 0.457431 -0.367129 -6.102289 -0.043140 -0.312214 0.000000 0.000000 0.000000 -10.192942 6.096164 -1.966152 -7.225635 -0.915057 0.685796 -7.452658 0.053213 0.515049 0.000000 0.000000 0.000000 -14.090609 14.765221 -6.428228 -8.643305 -1.667345 2.313805 -8.494927 0.271969 2.041274 0.000000 0.000000 0.000000 0.000000 0.000000 0.000000 0.000000 0.000000 0.000000 -3.018037 -8.680079 18.556236 -0.112672 -0.959508 5.905693 -0.311827 -5.676690 15.747327 -0.821766 1.367861 -17.190201 0.000000 0.000000 0.000000 0.000000 0.000000 0.000000 0.000000 0.000000 0.000000 1.576129 -7.362068 10.969194 0.140357 0.556804 14.020579 0.972114 -1.091376 14.522672 0.676000 -0.753278 -20.348133 0.000000 0.000000 0.000000 0.000000 0.000000 0.000000 0.000000 0.000000 0.000000 
-4.641930 88.131256 0.235009 -0.763755 -0.611920 -14.108580 1.512534 0.270112 8.222332 -0.761017 0.073018 1.723697 -1.523569 0.635518 6.138966 -1.351213 0.267282 4.116339 -0.820294 -0.126958 3.869131 -0.301104 -0.798299 -2.690991 -0.288877 -0.941500 -19.340082 0.000000 0.000000 0.000000 92.351257 -0.408941 11.569574 61.041370 -30.989969 6.430027 -0.998934 15.563661 39.771900 6.050465 6.171803 -10.794269 20.289572 29.901747 61.563339 -8.984295 -12.922728 -21.837379 -6.688955 -8.630154 -15.321586 0.000000 0.000000 0.000000 15.743568 -11.012529 3.428260 10.779550 0.298710 1.303521 10.588253 -0.123113 1.227141 0.000000 0.000000 0.000000 14.230285 -5.806642 1.533838 9.291893 0.419997 0.514142 9.932037 -0.061339 0.427108 0.000000 0.000000 0.000000 13.054959 2.043205 0.536288 9.145621 -0.911669 -0.811554 9.216892 0.082947 -0.539506 0.000000 0.000000 0.000000 10.458759 10.575425 -1.277270 8.198692 -1.648262 -2.286247 8.220744 0.287114 -1.939312 0.000000 0.000000 0.000000 0.000000 0.000000 0.000000 0.000000 0.000000 0.000000 -88.200981 0.134167 6.054654 -67.114647 25.951334 -4.882116 -0.135867 -9.516969 59.690010 -11.844170 -12.791217 -17.111017 -18.750120 -30.445431 63.126129 7.281075 10.005258 -17.236115 5.374474 6.799489 -12.105613 0.000000 0.000000 0.000000 -8.315413 -7.072549 4.485839 -6.151698 0.424335 -0.897555 -5.963689 -0.056089 -0.843069 0.000000 0.000000 0.000000 -7.349605 -2.124981 1.549845 -6.217029 0.457393 -0.367083 -6.089650 -0.043183 -0.312196 0.000000 0.000000 0.000000 -10.170777 6.092523 -1.970494 -7.213389 -0.915027 0.685591 -7.440423 0.053225 0.514928 0.000000 0.000000 0.000000 -14.073406 14.762379 -6.439450 -8.633114 -1.667190 2.313290 -8.485430 0.272029 2.040994 0.000000 0.000000 0.000000 0.000000 0.000000 0.000000 0.000000 0.000000 0.000000 -3.020524 -8.678965 18.557537 -0.112743 -0.960027 5.905587 -0.309114 -5.675900 15.745975 -0.821839 1.368511 -17.191019 0.000000 0.000000 0.000000 0.000000 0.000000 0.000000 0.000000 0.000000 0.000000 1.576199 -7.366861 10.966226 0.140413 0.556985 14.024382 0.971813 -1.094709 14.523810 0.675703 -0.753669 -20.350306 0.000000 0.000000 0.000000 0.000000 0.000000 0.000000 0.000000 0.000000 0.000000 
-4.644162 88.131165 0.233024 -0.763840 -0.608882 -14.109416 1.511561 0.269846 8.222973 -0.761690 0.072642 1.723276 -1.523435 0.634140 6.138272 -1.351793 0.266487 4.116940 -0.827706 -0.122438 3.876373 -0.303279 -0.797952 -2.687847 -0.289449 -0.940321 -19.341253 0.000000 0.000000 0.000000 92.352043 -0.408743 11.567240 61.037663 -30.968431 6.415761 -1.000554 15.573442 39.838287 6.052458 6.165619 -10.790519 20.288370 29.902113 61.564270 -8.983294 -12.920522 -21.834114 -6.688193 -8.628581 -15.319331 0.000000 0.000000 0.000000 15.734492 -11.011226 3.436608 10.775741 0.298590 1.303459 10.583877 -0.123217 1.227192 0.000000 0.000000 0.000000 14.224303 -5.805563 1.538681 9.289103 0.419949 0.514040 9.929194 -0.061374 0.426991 0.000000 0.000000 0.000000 13.052967 2.043954 0.535418 9.144169 -0.911594 -0.811417 9.215649 0.082970 -0.539397 0.000000 0.000000 0.000000 10.460003 10.575788 -1.284227 8.199298 -1.648092 -2.285477 8.221687 0.287280 -1.938766 0.000000 0.000000 0.000000 0.000000 0.000000 0.000000 0.000000 0.000000 0.000000 -88.196640 0.132930 6.053561 -67.103043 25.939619 -4.883696 -0.136267 -9.532886 59.720322 -11.859251 -12.768765 -17.118633 -18.746214 -30.446762 63.129982 7.276840 9.997852 -17.224201 5.371192 6.794513 -12.097476 0.000000 0.000000 0.000000 -8.290028 -7.077076 4.493196 -6.138464 0.424267 -0.897465 -5.950963 -0.056173 -0.843006 0.000000 0.000000 0.000000 -7.326019 -2.129224 1.552602 -6.204615 0.457351 -0.367046 -6.077153 -0.043228 -0.312185 0.000000 0.000000 0.000000 -10.148873 6.088925 -1.974870 -7.201304 -0.914993 0.685396 -7.428330 0.053240 0.514815 0.000000 0.000000 0.000000 -14.056406 14.759577 -6.450607 -8.623064 -1.667020 2.312802 -8.476075 0.272101 2.040734 0.000000 0.000000 0.000000 0.000000 0.000000 0.000000 0.000000 0.000000 0.000000 -3.023047 -8.677845 18.558891 -0.112815 -0.960553 5.905426 -0.306339 -5.675088 15.744640 -0.821916 1.369168 -17.191820 0.000000 0.000000 0.000000 0.000000 0.000000 0.000000 0.000000 0.000000 0.000000 1.576241 -7.371609 10.963297 0.140467 0.557158 14.028163 0.971571 -1.097965 14.524920 0.675410 -0.754051 -20.352461 0.000000 0.000000 0.000000 0.000000 0.000000 0.000000 0.000000 0.000000 0.000000 
-4.646342 88.131073 0.231078 -0.763947 -0.605890 -14.110246 1.510577 0.269587 8.223615 -0.762354 0.072269 1.722847 -1.523306 0.632824 6.137569 -1.352367 0.265723 4.117542 -0.835029 -0.117898 3.883626 -0.305440 -0.797578 -2.684699 -0.290006 -0.939136 -19.342403 0.000000 0.000000 0.000000 92.352791 -0.408537 11.564943 61.034016 -30.947073 6.401644 -1.002174 15.583054 39.904129 6.054310 6.159225 -10.786792 20.287174 29.902485 61.565212 -8.982288 -12.918319 -21.830832 -6.687430 -8.627004 -15.317071 0.000000 0.000000 0.000000 15.725314 -11.009914 3.444930 10.771878 0.298466 1.303411 10.579456 -0.123325 1.227255 0.000000 0.000000 0.000000 14.218225 -5.804473 1.543509 9.286280 0.419899 0.513942 9.926300 -0.061409 0.426877 0.000000 0.000000 0.000000 13.050850 2.044725 0.534570 9.142665 -0.911517 -0.811284 9.214356 0.082995 -0.539293 0.000000 0.000000 0.000000 10.461116 10.576182 -1.291118 8.199862 -1.647910 -2.284720 8.222568 0.287454 -1.938230 0.000000 0.000000 0.000000 0.000000 0.000000 0.000000 0.000000 0.000000 0.000000 -88.192291 0.131696 6.052476 -67.091629 25.927887 -4.885271 -0.136673 -9.548729 59.750431 -11.874276 -12.746370 -17.126326 -18.742353 -30.448072 63.133793 7.272662 9.990543 -17.212439 5.367953 6.789600 -12.089444 0.000000 0.000000 0.000000 -8.264952 -7.081555 4.500346 -6.125368 0.424191 -0.897398 -5.938378 -0.056265 -0.842961 0.000000 0.000000 0.000000 -7.302726 -2.133414 1.555216 -6.192340 0.457305 -0.367017 -6.064801 -0.043276 -0.312182 0.000000 0.000000 0.000000 -10.127239 6.085379 -1.979281 -7.189375 -0.914953 0.685212 -7.416383 0.053260 0.514709 0.000000 0.000000 0.000000 -14.039613 14.756795 -6.461692 -8.613160 -1.666836 2.312338 -8.466867 0.272183 2.040494 0.000000 0.000000 0.000000 0.000000 0.000000 0.000000 0.000000 0.000000 0.000000 -3.025606 -8.676717 18.560305 -0.112887 -0.961085 5.905210 -0.303503 -5.674241 15.743322 -0.821994 1.369832 -17.192595 0.000000 0.000000 0.000000 0.000000 0.000000 0.000000 0.000000 0.000000 0.000000 1.576246 -7.376312 10.960419 0.140519 0.557321 14.031916 0.971384 -1.101143 14.526000 0.675120 -0.754424 -20.354595 0.000000 0.000000 0.000000 0.000000 0.000000 0.000000 0.000000 0.000000 0.000000 
